<svg width="598" height="598" viewBox="0 0 598 598" fill="none" xmlns="http://www.w3.org/2000/svg">
<circle cx="299" cy="299" r="299" fill="white"/>
<path fill-rule="evenodd" clip-rule="evenodd" d="M225.41 187L225 358.579H235.797V358.619H251.538L251.538 233.576L366.342 358.619L367.319 358.619L482.123 233.575L482.122 488.861L492.915 488.861V489H509.153L510 187H493.38L492.905 187.49L367.704 323.858L242.504 187.492L242.095 187H225.41Z" fill="#4D4D4D"/>
<path d="M180.331 459.935C203.205 469.312 227.986 474 254.672 474C279.279 474 302.5 469.853 324.334 461.558C346.169 452.902 365.057 440.1 381 423.15C374.441 416 367.953 408.789 361.394 401.639C346.254 417.058 329.665 428.119 311.626 434.823C293.909 441.191 274.904 444.376 254.61 444.376C232.062 444.376 211.124 440.353 191.797 432.309C172.469 423.929 155.558 412.365 141.063 397.617C126.889 382.868 115.776 365.773 107.723 346.332C99.9922 326.556 96.1267 305.104 96.1267 281.976C96.1267 258.848 99.9922 237.563 107.723 218.122C115.776 198.346 126.889 181.083 141.063 166.335C155.558 151.586 172.469 140.19 191.797 132.145C211.124 123.766 232.062 119.576 254.61 119.576C274.904 119.576 293.909 122.928 311.626 129.631C329.665 136 346.254 146.726 361.394 161.81C367.79 154.837 374.593 148.294 381 141.309C365.057 124.359 346.169 111.737 324.334 103.442C302.5 95.1474 279.279 91 254.672 91C227.986 91 203.205 95.8687 180.331 105.606C157.457 114.983 137.529 128.326 120.546 145.637C103.564 162.948 90.394 183.324 81.0364 206.766C71.6788 229.847 67 255.091 67 282.5C67 309.909 71.6788 335.334 81.0364 358.775C90.394 381.856 103.564 402.052 120.546 419.363C137.529 436.674 157.457 450.198 180.331 459.935Z" fill="#4D4D4D"/>
</svg>
