<svg width="150" height="125" viewBox="0 0 150 125" fill="none" xmlns="http://www.w3.org/2000/svg">
<path d="M66.3964 102.518C59.5637 102.518 53.219 101.402 47.3623 99.1693C41.5057 96.851 36.4033 93.6311 32.0552 89.5097C27.7071 85.3882 24.3351 80.5799 21.9392 75.0846C19.5433 69.5035 18.3453 63.4501 18.3453 56.9245C18.3453 50.3988 19.5433 44.3884 21.9392 38.8931C24.3351 33.312 27.7071 28.4607 32.0552 24.3393C36.4033 20.2178 41.5057 17.0409 47.3623 14.8084C53.219 12.4901 59.5637 11.3309 66.3964 11.3309C72.6967 11.3309 78.6421 12.3184 84.2325 14.2932C89.823 16.2681 94.6591 19.2733 98.741 23.3089L95.9458 26.1424C91.7752 22.2785 87.2052 19.5309 82.2359 17.8995C77.3554 16.1822 72.1199 15.3236 66.5295 15.3236C60.3179 15.3236 54.55 16.3969 49.2258 18.5435C43.9016 20.6042 39.2429 23.5236 35.2497 27.3015C31.3453 31.0795 28.2839 35.5015 26.0655 40.5675C23.9358 45.5475 22.8709 50.9999 22.8709 56.9245C22.8709 62.849 23.9358 68.3443 26.0655 73.4102C28.2839 78.3903 31.3453 82.7694 35.2497 86.5474C39.2429 90.3254 43.9016 93.2877 49.2258 95.4342C54.55 97.495 60.3179 98.5253 66.5295 98.5253C72.1199 98.5253 77.3554 97.7096 82.2359 96.0782C87.2052 94.3609 91.7752 91.5275 95.9458 87.5777L98.741 90.4112C94.6591 94.4468 89.823 97.495 84.2325 99.5557C78.6421 101.531 72.6967 102.518 66.3964 102.518Z" fill="#4D4D4D"/>
<path d="M65.2877 75.1047L65.2877 31.2949H69.1848L69.2805 31.4296L98.5235 68.7856L127.767 31.4291L127.878 31.2949H131.76L131.759 113.849L127.766 113.849L127.767 37.9066L101.059 72.0243L99.0398 74.6036L98.6474 75.1047L98.3995 75.1047L98.0073 74.6036L95.9881 72.0243L69.2805 37.9071L69.2805 75.1047H65.2877Z" fill="#4D4D4D"/>
</svg>
